<svg xmlns="http://www.w3.org/2000/svg" viewBox="0 0 64 64">
  <rect width="64" height="64" rx="14" fill="#080808"/>
  <path d="M12 46 22 17h6.5L38 46h-6.8l-1.9-6.3h-8.4L18.9 46H12Zm10.7-12h4.8l-2.4-8.2L22.7 34Z" fill="#f7f7f7"/>
  <path d="M37 17h8.8c5.5 0 8.7 2.7 8.7 7.1 0 2.8-1.4 4.8-3.7 5.9 3 1 4.7 3.4 4.7 6.7 0 5.7-4 9.3-10.3 9.3H37V17Zm7.8 11c2.1 0 3.2-1 3.2-2.8s-1.1-2.7-3.2-2.7h-1.6V28h1.6Zm.4 12.3c2.5 0 3.8-1.1 3.8-3.3s-1.3-3.3-3.8-3.3h-2v6.6h2Z" fill="#8b8cff"/>
  <circle cx="54" cy="12" r="4" fill="#39d6a6"/>
</svg>
